<?xml version="1.0" encoding="UTF-8"?>
<svg xmlns="http://www.w3.org/2000/svg" viewBox="0 0 260 260">
  <!-- Clipboard body -->
  <rect x="20" y="40" width="160" height="200" rx="10" ry="10" fill="none" stroke="#000" stroke-width="4"/>
  <!-- Clipboard clip -->
  <rect x="80" y="0" width="100" height="40" rx="10" ry="10" fill="none" stroke="#000" stroke-width="4"/>
  <line x1="80" y1="20" x2="180" y2="20" stroke="#000" stroke-width="4"/>

  <!-- Checklist items -->
  <!-- Check marks and lines -->
  <g stroke="#000" stroke-width="4" fill="none">
    <!-- First item -->
    <polyline points="40,80 50,90 70,70" fill="none"/>
    <line x1="80" y1="80" x2="160" y2="80"/>
    <!-- Second item -->
    <polyline points="40,120 50,130 70,110"/>
    <line x1="80" y1="120" x2="160" y2="120"/>
    <!-- Third item -->
    <polyline points="40,160 50,170 70,150"/>
    <line x1="80" y1="160" x2="160" y2="160"/>
    <!-- Fourth item -->
    <polyline points="40,200 50,210 70,190"/>
    <line x1="80" y1="200" x2="160" y2="200"/>
  </g>

  <!-- Box in front -->
  <g stroke="#000" stroke-width="4" fill="none">
    <!-- Front face -->
    <rect x="140" y="140" width="80" height="60"/>
    <!-- Top face -->
    <polygon points="140,140 180,120 260,140 180,160"/>
    <!-- Side face -->
    <polygon points="220,140 220,200 180,180"/>
    <!-- Center line on top -->
    <line x1="180" y1="120" x2="180" y2="160"/>
  </g>
</svg>
